Coordinates
version=1
nRows=26
nColumns=24
inDegrees=yes

Units are S.I. units (second, meters, Newtons, ...)
Angles are in degrees.

endheader
time	pelvis_tilt	pelvis_list	pelvis_rotation	pelvis_tx	pelvis_ty	pelvis_tz	hip_flexion_r	hip_adduction_r	hip_rotation_r	knee_angle_r	ankle_angle_r	subtalar_angle_r	mtp_angle_r	hip_flexion_l	hip_adduction_l	hip_rotation_l	knee_angle_l	ankle_angle_l	subtalar_angle_l	mtp_angle_l	lumbar_extension	lumbar_bending	lumbar_rotation
      4.13000000	    -19.10797293	     -4.53492283	      4.84603988	     -1.82970003	     -0.03937492	     -0.35815285	     45.57455597	      3.27641826	    -19.28008124	    -13.16174879	      0.12191021	     -0.96225582	     19.65227101	      1.62478493	     -4.06275882	     -4.98561887	    -16.83491964	      7.62119110	     13.30446310	     10.48945291	     19.81494009	     -0.46513170	    -20.09530441
      4.13500000	    -19.22986969	     -4.67798621	      4.99440925	     -1.82247186	     -0.04034168	     -0.35812063	     45.71880239	      3.29899448	    -19.26894077	    -13.77845488	     -0.43191812	     -1.69132081	     19.69364604	      1.68534424	     -4.33525954	     -4.76720255	    -17.50494184	      7.10207750	     13.57220538	     10.48429098	     20.02216321	     -0.32455419	    -20.27507692
      4.14000000	    -19.29396448	     -4.91996022	      5.12420470	     -1.81514169	     -0.04122211	     -0.35800611	     45.77771989	      3.45460936	    -19.18369288	    -14.34608405	     -1.17622384	     -2.77079454	     19.71499114	      1.71651498	     -4.74798403	     -4.65171148	    -18.21786730	      6.56479152	     13.98396060	     10.61318753	     20.18577227	     -0.07749099	    -20.47016203
      4.14500000	    -19.33980772	     -5.18658863	      5.21940366	     -1.80779395	     -0.04205242	     -0.35782854	     45.82770975	      3.66840597	    -19.02854739	    -14.92970404	     -2.04811800	     -4.05441268	     19.71528152	      1.75507655	     -5.20518010	     -4.60905887	    -18.96581527	      5.95997131	     14.44690964	     10.86501288	     20.33035065	      0.20674862	    -20.63040111
      4.15000000	    -19.38658786	     -5.46990350	      5.28898400	     -1.80045127	     -0.04285028	     -0.35760866	     45.90012683	      3.91968575	    -18.81388108	    -15.54988148	     -2.99250119	     -5.49162530	     19.66767274	      1.82881486	     -5.69148976	     -4.60724077	    -19.75637689	      5.27157433	     14.91948915	     11.23951375	     20.47344731	      0.51934672	    -20.76249079
      4.15500000	    -19.43136819	     -5.71212500	      5.19141453	     -1.79308195	     -0.04365517	     -0.35713681	     46.00651598	      4.27595931	    -18.34197118	    -16.23288687	     -4.00553556	     -7.10969065	     19.55261897	      1.87741410	     -6.17057967	     -4.88741797	    -20.52240890	      4.43553873	     15.44148492	     12.19046420	     20.60203424	      0.84943231	    -20.68959458
      4.16000000	    -19.50840145	     -6.04354061	      5.22340118	     -1.78570549	     -0.04439257	     -0.35686003	     46.15431283	      4.60128021	    -18.00249371	    -16.94657446	     -4.94107036	     -8.71697703	     19.20232931	      2.05888925	     -6.72821145	     -4.96371926	    -21.39100332	      3.50500382	     15.85598691	     13.01017734	     20.78392774	      1.22009678	    -20.82105404
      4.16500000	    -19.56153660	     -6.32556593	      5.20111343	     -1.77849301	     -0.04508154	     -0.35645534	     46.33097440	      4.93488470	    -17.51198546	    -17.76633755	     -5.83946007	    -10.30975760	     18.50633478	      2.24964093	     -7.25174680	     -5.06298287	    -22.29290405	      2.47450706	     16.32722553	     14.18732350	     20.89768896	      1.55926503	    -20.84465154
      4.17000000	    -19.64128671	     -6.67859854	      5.21941776	     -1.77110835	     -0.04572515	     -0.35616162	     46.52296188	      5.29793830	    -17.06150347	    -18.59396721	     -6.56231996	    -11.85935487	     17.75342808	      2.52219212	     -7.84173620	     -5.12706218	    -23.26503160	      1.31384729	     16.68631937	     15.08841682	     21.08347207	      1.95340817	    -21.03169079
      4.17500000	    -19.62615901	     -6.92462704	      5.21464874	     -1.76397958	     -0.04623531	     -0.35571341	     46.68635031	      5.61125628	    -16.49499636	    -19.61437269	     -7.04957213	    -13.07663023	     15.70996188	      2.72170496	     -8.34430806	     -5.20290778	    -24.16884713	     -0.15437322	     16.91156601	     17.43079726	     21.09886229	      2.25347739	    -21.05910934
      4.18000000	    -19.69726630	     -7.22682026	      5.13970567	     -1.75680773	     -0.04686192	     -0.35524165	     46.93092761	      6.00946772	    -15.93142840	    -20.57228137	     -7.50630066	    -14.40331626	     14.78292543	      3.10005847	     -8.91291105	     -5.38070775	    -25.32849459	     -1.44890990	     17.36225569	     18.30255983	     21.22115067	      2.63054284	    -21.07271465
      4.18500000	    -19.70845536	     -7.45290795	      5.08485754	     -1.74960272	     -0.04733918	     -0.35467820	     47.11694862	      6.35712452	    -15.35930552	    -21.62747598	     -7.63194852	    -15.41537590	     12.88035404	      3.40759697	     -9.41327500	     -5.50016999	    -26.35810241	     -3.12459988	     17.66424938	     20.29159783	     21.27354845	      2.91387052	    -21.08660231
      4.19000000	    -19.73365265	     -7.77562956	      5.06174637	     -1.74249335	     -0.04782820	     -0.35427613	     47.29142200	      6.75119044	    -14.87489358	    -22.59686289	     -7.69789450	    -16.37230051	     11.54090953	      3.86050180	     -9.99599762	     -5.55505068	    -27.59937794	     -4.73975019	     17.79635283	     21.62095172	     21.33953178	      3.29624395	    -21.21578752
      4.19500000	    -19.67495287	     -7.95388975	      5.04674208	     -1.73544499	     -0.04814663	     -0.35377889	     47.38406295	      7.03148118	    -14.46728997	    -23.65828343	     -7.45955107	    -17.00950171	      9.58274710	      4.21266353	    -10.42280762	     -5.51893380	    -28.72151723	     -6.67460149	     17.82420486	     23.69690989	     21.28712480	      3.52956475	    -21.24926288
      4.20000000	    -19.65742887	     -8.19836928	      5.02221822	     -1.72844180	     -0.04850808	     -0.35331545	     47.46999064	      7.37437993	    -14.07132773	    -24.59967725	     -7.18300630	    -17.64411569	      8.16346360	      4.70494363	    -10.91148931	     -5.47956084	    -30.00483491	     -8.56389540	     17.78156646	     25.18354249	     21.28057590	      3.83063505	    -21.35559011
      4.20500000	    -19.58071663	     -8.37131140	      5.02717730	     -1.72153754	     -0.04873520	     -0.35288879	     47.46952743	      7.63503643	    -13.78670155	    -25.53388171	     -6.73326596	    -18.08023866	      6.63479683	      5.16972996	    -11.29507702	     -5.32106815	    -31.26279769	    -10.62529863	     17.51509446	     26.89646937	     21.18957661	      4.05792582	    -21.44392497
      4.21000000	    -19.48947135	     -8.52771372	      5.02656382	     -1.71470578	     -0.04891084	     -0.35246656	     47.40988874	      7.88397402	    -13.56461477	    -26.39151093	     -6.21080626	    -18.43596208	      5.40431710	      5.67202398	    -11.64354208	     -5.12599481	    -32.58115170	    -12.70917120	     17.16070346	     28.28666077	     21.07020744	      4.27461042	    -21.52598498
      4.21500000	    -19.34946345	     -8.72127491	      4.97511420	     -1.70781929	     -0.04901744	     -0.35214015	     47.22195919	      8.18675948	    -13.43601842	    -27.09200391	     -5.67378580	    -18.77478302	      5.17386585	      6.15953624	    -12.01158128	     -4.97683584	    -34.02425734	    -14.66639605	     16.74802891	     28.47259850	     20.91297255	      4.57506569	    -21.55824500
      4.22000000	    -19.37190211	     -8.83034851	      4.98586116	     -1.70118729	     -0.04923132	     -0.35163282	     47.22237522	      8.36129309	    -13.33258899	    -27.87874712	     -4.95539954	    -18.77699285	      3.73913294	      6.88652415	    -12.27015579	     -4.66819250	    -35.35684771	    -16.86263542	     16.13288147	     30.49162859	     20.88846550	      4.70727583	    -21.66458035
      4.22500000	    -19.21049963	     -8.98720927	      4.94147922	     -1.69447334	     -0.04919789	     -0.35118211	     46.93327466	      8.64624936	    -13.26099990	    -28.47801305	     -4.26678388	    -18.83841621	      2.99860392	      7.41962368	    -12.57359651	     -4.42743439	    -36.76388476	    -18.86708391	     15.48440346	     31.22676119	     20.68056727	      4.95110095	    -21.68222827
      4.23000000	    -19.15582761	     -9.14381401	      4.88508803	     -1.68784531	     -0.04923553	     -0.35072983	     46.71820790	      8.90835729	    -13.26360574	    -28.98878633	     -3.63232431	    -18.92192943	      2.75990840	      8.12697432	    -12.84384332	     -4.13255919	    -38.25815854	    -20.69371687	     14.85626291	     31.41659144	     20.58328376	      5.18563936	    -21.67067286
      4.23500000	    -19.05809913	     -9.33428036	      4.77977474	     -1.68122832	     -0.04920973	     -0.35019557	     46.39686944	      9.25849132	    -13.21327931	    -29.38181870	     -3.00366359	    -18.99737454	      2.71744465	      8.80576373	    -13.16678369	     -3.93614952	    -39.78719235	    -22.30527085	     14.17097890	     31.36439628	     20.43972574	      5.47282882	    -21.64740681
      4.24000000	    -19.05387774	     -9.44391860	      4.75709775	     -1.67483045	     -0.04918346	     -0.34978033	     46.17319703	      9.42680825	    -13.31358421	    -29.79861732	     -2.27853172	    -18.81233101	      2.56428526	      9.65637126	    -13.32821789	     -3.54373989	    -41.32278808	    -23.78595192	     13.34851868	     31.39491735	     20.37173556	      5.63932746	    -21.66673514
      4.24500000	    -18.99600390	     -9.61693797	      4.64144908	     -1.66839742	     -0.04906512	     -0.34923201	     45.82929359	      9.75335228	    -13.31607335	    -30.07850679	     -1.67246159	    -18.74160172	      2.53575751	     10.43952879	    -13.59322782	     -3.31471380	    -42.87228191	    -24.96256370	     12.48197697	     31.19946857	     20.25214259	      5.90846137	    -21.60306447
      4.25000000	    -18.97386143	     -9.76244407	      4.54577927	     -1.66203277	     -0.04891468	     -0.34870713	     45.49333288	     10.02485678	    -13.37854690	    -30.31559152	     -1.03064004	    -18.57898395	      2.55499330	     11.29010992	    -13.79957120	     -3.04871928	    -44.42383497	    -25.86898779	     11.50895019	     30.84130707	     20.16855655	      6.13328757	    -21.53594349
      4.25500000	    -19.04806172	     -9.84157115	      4.47722696	     -1.65571804	     -0.04877774	     -0.34823180	     45.22824646	     10.19383220	    -13.44622624	    -30.52720084	     -0.30196101	    -18.26381224	      2.60651526	     12.27596469	    -13.89058900	     -2.72454227	    -45.99857402	    -26.46571367	     10.56156643	     29.93821360	     20.19232752	      6.26582944	    -21.50834953
